<svg width="910" height="910" viewBox="0 0 910 910" fill="none" xmlns="http://www.w3.org/2000/svg">
<path d="M845 453.021C845 471.632 843.826 490.039 841.467 508.182C838.611 530.379 833.999 552.203 827.657 573.56C826.069 578.585 824.398 583.573 822.608 588.526C817.57 602.544 811.761 616.19 805.229 629.417C798.994 642.092 792.083 654.383 784.58 666.231L751.945 588.526H634.732L705.465 756.958C650.64 803.258 583.095 834.663 508.912 845V508.182H817.309C819.964 490.063 821.292 471.656 821.292 453.021C821.292 434.387 820.012 428.811 817.451 411.051H92.5489C90.0003 428.823 88.7082 434.854 88.7082 453.021C88.7082 471.189 90.0596 490.003 92.7268 508.182H401.04V845C326.857 834.663 259.312 803.258 204.487 756.958L275.221 588.526H158.007L125.373 666.231C110.034 642.008 97.2194 615.974 87.345 588.526C86.4678 586.103 85.6143 583.669 84.7964 581.223C84.3578 579.94 83.931 578.657 83.5161 577.373C83.5043 577.325 83.4806 577.265 83.4687 577.218C76.5815 554.673 71.5909 531.59 68.5562 508.182C66.1854 489.967 65 471.548 65 453.021C65 434.495 66.138 416.867 68.4021 399.06C71.4249 375.137 76.4985 351.573 83.5635 328.55C84.6304 325.252 85.7565 321.966 86.9182 318.716C87.3805 317.421 87.8429 316.138 88.3289 314.855C134.998 188.069 244.127 92.0409 377.865 65L259.455 330.708H376.668L454.976 160.464L533.284 330.708H650.498L532.087 65C661.178 91.1055 767.344 181.486 816.538 301.76C818.838 307.348 820.995 312.997 823.034 318.716C824.492 322.806 825.891 326.931 827.219 331.092C833.881 353.3 838.694 376 841.61 399.06C843.862 416.855 845 434.866 845 453.021Z" fill="white"/>
</svg>
