<svg width="24" height="24" viewBox="0 0 24 24" fill="none" xmlns="http://www.w3.org/2000/svg">
<rect width="24" height="24" rx="6" fill="#460437"/>
<path d="M12.0674 7.25486L9.34271 11.7879L12.2496 16.5967C12.2679 16.6335 12.277 16.6703 12.2679 16.7071C12.2588 16.7438 12.2223 16.7163 12.1676 16.7255H10.0899C9.94415 16.7255 9.84391 16.7163 9.78012 16.6243C9.58875 16.2381 9.38828 15.8612 9.19691 15.4842C9.00554 15.1072 8.79596 14.721 8.57725 14.3348C8.35855 13.9394 8.13985 13.5441 7.92114 13.1487H7.91203C7.72067 13.5257 7.52019 13.9211 7.3106 14.3164C7.10101 14.7118 6.89142 15.1072 6.69094 15.4842C6.48135 15.8703 6.27176 16.2657 6.06217 16.6335C6.02572 16.7255 5.95282 16.7346 5.85258 16.7346H3.85691C3.82046 16.7346 3.79313 16.753 3.79313 16.7071C3.78401 16.6703 3.79313 16.6335 3.81135 16.6059L6.63626 11.935L3.88425 7.24567C3.85691 7.20889 3.8478 7.17211 3.86603 7.15372C3.88425 7.12614 3.9207 7.11694 3.95715 7.11694H6.01661C6.06217 7.11694 6.10773 7.12614 6.14418 7.13533C6.18063 7.15372 6.20797 7.18131 6.23531 7.21809C6.40845 7.61346 6.60893 8.00883 6.81852 8.39501C7.03722 8.79039 7.24681 9.17657 7.47463 9.55355C7.69333 9.93973 7.89381 10.3259 8.08517 10.7121H8.1034C8.29476 10.3075 8.49524 9.91215 8.69572 9.53516C8.89619 9.14898 9.10578 8.7628 9.31537 8.38582C9.52496 8.00883 9.72544 7.60426 9.92592 7.23647C9.93503 7.1997 9.95326 7.16292 9.9806 7.14453C10.017 7.12614 10.0535 7.11694 10.0991 7.12614H12.0127C12.0583 7.11694 12.1038 7.14453 12.1129 7.1905C12.1038 7.1997 12.0856 7.23647 12.0674 7.25486Z" fill="#CB74AF"/>
<path d="M16.2684 16.9186C15.594 16.9278 14.9288 16.7899 14.3183 16.5049C13.7442 16.2382 13.2703 15.7969 12.9514 15.2636C12.6142 14.7027 12.4502 14.0131 12.4502 13.1764C12.4411 12.496 12.6142 11.834 12.9514 11.2455C13.2976 10.6478 13.7988 10.1513 14.3912 9.8295C15.029 9.4709 15.7854 9.2962 16.6875 9.2962C16.7331 9.2962 16.7969 9.2962 16.8789 9.3054C16.9609 9.31459 17.052 9.31459 17.1614 9.32379V6.41825C17.1614 6.35388 17.1887 6.3171 17.2525 6.3171H19.0933C19.1388 6.30791 19.1753 6.34469 19.1844 6.38147C19.1844 6.39066 19.1844 6.39986 19.1844 6.39986V15.1165C19.1844 15.282 19.1935 15.4659 19.2026 15.6682C19.2208 15.8613 19.23 16.0451 19.2391 16.2015C19.2391 16.2658 19.2117 16.321 19.1479 16.3486C18.6741 16.5509 18.1729 16.698 17.6717 16.7899C17.1978 16.8727 16.7331 16.9186 16.2684 16.9186ZM17.1523 15.0797V11.0524C17.0703 11.034 16.9883 11.0156 16.9062 11.0064C16.806 10.9972 16.7058 10.988 16.6055 10.988C16.2501 10.988 15.8947 11.0616 15.5758 11.2271C15.266 11.3834 15.0017 11.6133 14.8012 11.9075C14.6007 12.2017 14.5005 12.5971 14.5005 13.066C14.4914 13.3879 14.5461 13.7097 14.6554 14.0131C14.7466 14.2614 14.8832 14.482 15.0655 14.6659C15.2386 14.8314 15.4482 14.9602 15.6852 15.0337C15.9312 15.1165 16.1863 15.1533 16.4415 15.1533C16.5782 15.1533 16.7058 15.1441 16.8242 15.1349C16.9427 15.1349 17.0429 15.1165 17.1523 15.0797Z" fill="#CB74AF"/>
</svg>
