<svg width="24" height="24" viewBox="0 0 24 24" fill="none" xmlns="http://www.w3.org/2000/svg">
<rect width="24" height="24" rx="6" fill="#F1F2F2"/>
<path d="M5.40114 8.93026C5.13329 8.84243 4.95473 8.7546 4.77617 8.66676C4.77617 8.40326 4.68689 8.13976 4.68689 7.87626C4.68689 7.61275 4.68689 7.43709 4.68689 7.17358C4.86545 7.26142 5.04401 7.26142 5.31185 7.34925C5.31185 7.61275 5.31185 7.96409 5.31185 8.31543C5.31185 8.49109 5.40114 8.7546 5.40114 8.93026ZM7.81172 10.3356C7.18675 9.89644 6.56178 9.5451 6.11538 9.2816C6.0261 8.66676 5.93682 8.05192 6.0261 7.52492C6.4725 7.61275 7.00819 7.78842 7.63315 7.96409C7.63315 8.66676 7.72243 9.5451 7.81172 10.3356ZM14.2399 10.6869C14.2399 10.7748 14.2399 10.8626 14.2399 10.8626C13.3471 11.3018 12.5436 11.9166 11.7401 12.7071C11.4722 12.9706 11.2937 13.2341 11.0258 13.4976C10.758 13.2341 10.5794 12.8828 10.3116 12.6193C10.2223 12.5315 10.0437 12.3558 9.95445 12.268C9.77589 10.9504 9.59733 9.72077 9.59733 8.49109C11.2044 9.0181 12.8114 9.72077 14.2399 10.6869Z" fill="#4DB74E"/>
<path d="M5.57961 6.11963C5.49034 6.47093 5.40107 6.91006 5.31179 7.34918C5.04398 7.26136 4.86543 7.26136 4.68689 7.26136C4.68689 7.08571 4.68689 6.99788 4.77616 6.82223C4.95471 6.64658 5.22252 6.38311 5.57961 6.11963Z" fill="#008B5B"/>
<path d="M8.52604 4.45068C8.07964 5.24119 7.72252 6.38303 7.63324 7.78838V7.87621C7.00827 7.70054 6.47259 7.61271 6.02618 7.52488C6.02618 7.52488 6.02618 7.52488 6.02618 7.43704C6.11546 6.64654 6.29403 5.94386 6.65115 5.32902C7.18683 4.97769 7.8118 4.71419 8.52604 4.45068Z" fill="#059550"/>
<path d="M14.2397 10.687C12.8112 9.72084 11.2042 9.01817 9.6864 8.49116C9.6864 7.08582 9.77568 5.76831 10.0435 4.7143V4.62646C11.2042 5.32914 12.8112 6.11964 14.329 6.47098C14.4183 7.70066 14.4183 9.19383 14.2397 10.687Z" fill="#039848"/>
<path d="M19.329 7.87629C19.329 8.49112 19.2398 9.10596 19.0612 9.63297C18.8826 9.63297 18.7041 9.63297 18.4362 9.63297C18.5255 9.1938 18.6148 8.66679 18.6148 8.22762C18.7041 6.64661 18.2577 5.41693 17.6327 4.53859C17.9005 4.71426 18.0791 4.71426 18.1684 4.80209C18.8826 5.5926 19.4183 6.73444 19.329 7.87629ZM17.8113 9.80864C17.3649 9.89647 16.8292 9.9843 16.2042 10.16C16.2935 9.36946 16.3828 8.57896 16.3828 7.87629C16.2935 6.20744 15.8471 4.97776 15.3114 4.18726C15.8471 4.27509 16.2935 4.36292 16.7399 4.45076C17.4541 5.24126 17.9898 6.29527 18.0791 7.52495C18.0791 8.13979 17.9898 9.01813 17.8113 9.80864Z" fill="#0C9B49"/>
<path d="M14.3294 6.38284C12.8116 6.0315 11.2938 5.241 10.0439 4.53832C10.1332 4.36266 10.2224 4.09915 10.2224 3.92348C10.401 3.92348 10.6688 3.83565 10.9367 3.83565C11.9188 3.74782 12.8116 3.74782 13.7044 3.83565C13.7937 4.09915 13.883 4.36266 13.9722 4.62616C14.1508 5.241 14.2401 5.768 14.3294 6.38284Z" fill="#0C8643"/>
<path d="M7.90101 3.1333C7.81173 3.1333 6.20468 4.09948 5.57971 6.11966C5.22259 6.38316 4.95475 6.64666 4.77618 6.82233C5.22259 4.97782 6.91892 3.48464 7.90101 3.1333ZM8.8831 3.92381C8.79382 4.09947 8.70454 4.27514 8.52597 4.45081C7.81173 4.71431 7.18676 4.97782 6.65108 5.32915C7.09748 4.62648 7.63317 4.01164 8.25813 3.48464C8.43669 3.57247 8.61525 3.74814 8.8831 3.92381Z" fill="#32C5EE"/>
<path d="M18.1683 4.80207C18.079 4.71424 17.9004 4.71424 17.7219 4.6264C17.0076 3.66023 16.2041 3.13322 16.2041 3.13322C16.6505 3.30889 17.5433 3.92373 18.1683 4.80207ZM16.7398 4.3629C16.2934 4.27507 15.847 4.18723 15.3113 4.0994C14.4185 2.69405 13.2578 2.25488 13.1686 2.25488C14.4185 2.51838 15.7577 3.22106 16.7398 4.3629ZM13.7042 3.92373C12.8114 3.8359 11.9186 3.8359 10.9365 3.92373C10.6687 3.92373 10.4901 4.01156 10.2223 4.01156C10.8473 2.51838 11.9186 2.25488 11.9186 2.25488C12.0079 2.25488 13.0793 2.43055 13.7042 3.92373ZM10.8473 2.25488C10.758 2.25488 9.77589 2.60622 8.88308 3.92373C8.61524 3.74806 8.43668 3.57239 8.25812 3.48456C9.06164 2.86972 10.0437 2.43055 10.8473 2.25488Z" fill="url(#paint0_linear_1053_136)"/>
<path d="M12.0079 22.1053H13.0793L13.5257 20.3486H10.4901L10.9365 22.1053H12.0079Z" fill="#676666"/>
<path fill-rule="evenodd" clip-rule="evenodd" d="M7.81157 14.288C7.99013 14.7272 8.25797 15.0785 8.43653 15.4299C8.70438 15.9569 9.0615 16.4839 9.32934 16.8352C9.41862 16.5717 9.5079 16.2204 9.68646 15.9569C9.41862 15.4299 9.24006 14.9029 8.97222 14.288C8.52581 13.0584 8.07941 11.653 7.81157 10.3355C7.1866 9.89633 6.56164 9.545 6.11523 9.28149C6.38308 11.126 7.1866 12.8827 7.81157 14.288Z" fill="url(#paint1_linear_1053_136)"/>
<path fill-rule="evenodd" clip-rule="evenodd" d="M6.82964 14.2879C6.91892 14.4635 7.09748 14.7271 7.18676 14.9027C7.81173 15.8689 8.52597 16.7472 9.15094 17.5377C9.15094 17.4499 9.15094 17.3621 9.24022 17.2742C8.97238 16.9229 8.70454 16.5716 8.52597 16.3081C8.25813 15.8689 7.81173 15.1662 7.36532 14.3757C6.5618 12.9704 5.75827 11.1259 5.49043 9.10567C5.13331 8.84217 4.95475 8.75434 4.77618 8.6665C5.04403 10.511 5.75827 12.3555 6.82964 14.2879Z" fill="url(#paint2_linear_1053_136)"/>
<path fill-rule="evenodd" clip-rule="evenodd" d="M10.1332 12.9706C10.2224 13.4097 10.3117 13.9367 10.401 14.3759C10.401 14.4637 10.401 14.4637 10.401 14.5516C10.5796 14.2002 10.8474 13.9367 11.1153 13.5854C10.8474 13.3219 10.6688 12.9706 10.401 12.707C10.3117 12.6192 10.1332 12.4435 10.0439 12.3557C10.0439 12.4435 10.0439 12.707 10.1332 12.9706Z" fill="url(#paint3_linear_1053_136)"/>
<path fill-rule="evenodd" clip-rule="evenodd" d="M18.5255 9.7207C18.2577 11.0382 17.722 12.2679 17.1863 13.3219C17.2756 13.4097 17.3649 13.4976 17.4541 13.6732C18.1684 12.2679 18.7041 10.9504 19.0612 9.7207C18.8826 9.7207 18.7041 9.7207 18.5255 9.7207ZM16.2042 10.1599C16.1149 10.7747 15.9364 11.4774 15.7578 12.0922C16.0257 12.3557 16.3828 12.7071 16.7399 12.9706C17.1863 12.0044 17.5434 10.8625 17.8113 9.80854C17.3649 9.89637 16.8292 9.98421 16.2042 10.1599Z" fill="#98CA3C"/>
<path fill-rule="evenodd" clip-rule="evenodd" d="M11.7403 12.7071C11.4725 12.9706 11.2939 13.2341 11.0261 13.4976C11.9189 14.6394 12.5438 15.6934 13.0795 16.5718C13.2581 15.8691 13.4366 15.1664 13.6152 14.3759C13.7045 13.8489 13.7938 13.4097 13.883 12.8827C13.9723 12.1801 14.0616 11.5652 14.1509 10.8625C13.3474 11.3896 12.5438 11.9166 11.7403 12.7071ZM17.1864 13.3219C17.1864 13.3219 17.1864 13.4097 17.0971 13.4097C16.4722 14.5516 15.8472 15.5178 15.4901 16.1326C15.0437 16.8353 14.4187 17.6258 13.9723 18.2406C13.9723 18.3284 13.9723 18.3284 14.0616 18.3284C14.7759 17.5379 15.9365 16.2204 16.8293 14.7272C17.0971 14.3759 17.2757 14.0246 17.4543 13.6732C17.4543 13.6732 17.4543 13.5854 17.5436 13.5854C17.365 13.5854 17.2757 13.4976 17.1864 13.3219ZM15.8472 12.0922C15.2223 14.2002 14.3294 16.2204 13.7045 17.6258C13.7938 17.8014 13.883 17.9771 13.883 18.0649C14.508 17.2744 15.0437 16.5718 15.6687 15.4299C16.0258 14.8151 16.3829 14.0246 16.8293 13.0584L16.9186 12.9706C16.4722 12.6192 16.1151 12.3557 15.8472 12.0922Z" fill="url(#paint4_linear_1053_136)"/>
<path fill-rule="evenodd" clip-rule="evenodd" d="M12.6328 19.2945C13.0792 18.8554 13.5256 18.4162 13.8827 17.977C13.7935 17.8013 13.7935 17.7135 13.7042 17.5378C13.1685 18.504 12.7221 19.2067 12.6328 19.2945Z" fill="url(#paint5_linear_1053_136)"/>
<path fill-rule="evenodd" clip-rule="evenodd" d="M13.1687 19.2944C13.1687 19.2944 13.5258 18.9431 13.9721 18.4162C13.9721 18.4162 13.9721 18.3284 13.8829 18.3284C13.5258 18.8553 13.1687 19.2944 13.1687 19.2944Z" fill="url(#paint6_linear_1053_136)"/>
<path fill-rule="evenodd" clip-rule="evenodd" d="M10.4009 14.4637C10.9366 17.0109 11.7401 19.3824 11.7401 19.3824H12.3651C12.3651 19.3824 12.7222 18.1528 13.1686 16.5717C12.7222 15.6934 12.0079 14.6394 11.1151 13.4976C10.8473 13.8489 10.5794 14.1124 10.4009 14.4637Z" fill="url(#paint7_linear_1053_136)"/>
<path fill-rule="evenodd" clip-rule="evenodd" d="M9.32959 16.8353C9.95455 17.7137 10.5795 18.4163 11.4723 19.2947C11.2938 19.0312 10.4902 17.7137 9.68671 15.8691C9.50815 16.2205 9.41887 16.5718 9.32959 16.8353Z" fill="url(#paint8_linear_1053_136)"/>
<path fill-rule="evenodd" clip-rule="evenodd" d="M9.15088 17.45C10.0437 18.504 10.8472 19.2067 10.8472 19.2945C10.8472 19.2067 9.9544 18.2405 9.24016 17.1865C9.24016 17.2744 9.15088 17.3622 9.15088 17.45Z" fill="url(#paint9_linear_1053_136)"/>
<defs>
<linearGradient id="paint0_linear_1053_136" x1="8.71246" y1="3.3066" x2="17.6018" y2="3.5806" gradientUnits="userSpaceOnUse">
<stop stop-color="#4180C2"/>
<stop offset="1" stop-color="#62C4AF"/>
</linearGradient>
<linearGradient id="paint1_linear_1053_136" x1="9.3926" y1="16.1979" x2="7.26596" y2="10.8539" gradientUnits="userSpaceOnUse">
<stop stop-color="#CA2027"/>
<stop offset="0.388" stop-color="#A21C3F"/>
<stop offset="0.749" stop-color="#912A6A"/>
<stop offset="1" stop-color="#74368A"/>
</linearGradient>
<linearGradient id="paint2_linear_1053_136" x1="8.28716" y1="16.6374" x2="6.16142" y2="11.293" gradientUnits="userSpaceOnUse">
<stop stop-color="#CA2027"/>
<stop offset="0.388" stop-color="#A21C3F"/>
<stop offset="0.749" stop-color="#912A6A"/>
<stop offset="1" stop-color="#74368A"/>
</linearGradient>
<linearGradient id="paint3_linear_1053_136" x1="11.3234" y1="15.4297" x2="9.1977" y2="10.0857" gradientUnits="userSpaceOnUse">
<stop stop-color="#CA2027"/>
<stop offset="0.388" stop-color="#A21C3F"/>
<stop offset="0.749" stop-color="#912A6A"/>
<stop offset="1" stop-color="#74368A"/>
</linearGradient>
<linearGradient id="paint4_linear_1053_136" x1="15.8173" y1="12.4184" x2="12.7007" y2="15.8793" gradientUnits="userSpaceOnUse">
<stop stop-color="#ACD037"/>
<stop offset="1" stop-color="#DBD722"/>
</linearGradient>
<linearGradient id="paint5_linear_1053_136" x1="13.4179" y1="18.9704" x2="10.781" y2="14.4508" gradientUnits="userSpaceOnUse">
<stop stop-color="#E12B2B"/>
<stop offset="0.388" stop-color="#E3412B"/>
<stop offset="0.702" stop-color="#E66227"/>
<stop offset="1" stop-color="#F09B20"/>
</linearGradient>
<linearGradient id="paint6_linear_1053_136" x1="13.5902" y1="18.8696" x2="10.9543" y2="14.3506" gradientUnits="userSpaceOnUse">
<stop stop-color="#E12B2B"/>
<stop offset="0.388" stop-color="#E3412B"/>
<stop offset="0.702" stop-color="#E66227"/>
<stop offset="1" stop-color="#F09B20"/>
</linearGradient>
<linearGradient id="paint7_linear_1053_136" x1="13.1313" y1="19.1376" x2="10.4943" y2="14.618" gradientUnits="userSpaceOnUse">
<stop stop-color="#E12B2B"/>
<stop offset="0.388" stop-color="#E3412B"/>
<stop offset="0.702" stop-color="#E66227"/>
<stop offset="1" stop-color="#F09B20"/>
</linearGradient>
<linearGradient id="paint8_linear_1053_136" x1="11.6419" y1="20.0061" x2="9.00586" y2="15.487" gradientUnits="userSpaceOnUse">
<stop stop-color="#E12B2B"/>
<stop offset="0.388" stop-color="#E3412B"/>
<stop offset="0.702" stop-color="#E66227"/>
<stop offset="1" stop-color="#F09B20"/>
</linearGradient>
<linearGradient id="paint9_linear_1053_136" x1="11.1424" y1="20.2972" x2="8.50629" y2="15.7781" gradientUnits="userSpaceOnUse">
<stop stop-color="#E12B2B"/>
<stop offset="0.388" stop-color="#E3412B"/>
<stop offset="0.702" stop-color="#E66227"/>
<stop offset="1" stop-color="#F09B20"/>
</linearGradient>
</defs>
</svg>
