<svg width="24" height="24" viewBox="0 0 24 24" fill="none" xmlns="http://www.w3.org/2000/svg">
<rect width="24" height="24" rx="6" fill="#333333"/>
<path d="M12.2438 12.5681C12.2438 10.9206 13.6052 9.5813 15.2798 9.5813C16.9544 9.5813 18.3158 10.9206 18.3158 12.5681C18.3158 14.2156 16.9544 15.5549 15.2798 15.5549C13.6052 15.5549 12.2438 14.2156 12.2438 12.5681Z" fill="#47B8E9"/>
<path d="M6.17175 18.5417C6.17175 16.8943 7.53313 15.5549 9.20775 15.5549H12.2438V18.5417C12.2438 20.1892 10.8824 21.5285 9.20775 21.5285C7.53313 21.5285 6.17175 20.1892 6.17175 18.5417Z" fill="#48BA7F"/>
<path d="M12.2438 3.60767V9.58128H15.2798C16.9544 9.58128 18.3158 8.24196 18.3158 6.59447C18.3158 4.94699 16.9544 3.60767 15.2798 3.60767H12.2438V3.60767Z" fill="#F37264"/>
<path d="M6.17175 6.59447C6.17175 8.24196 7.53313 9.58128 9.20775 9.58128H12.2438V3.60767H9.20775C7.53313 3.60767 6.17175 4.94699 6.17175 6.59447Z" fill="#F05023"/>
<path d="M6.17175 12.5681C6.17175 14.2156 7.53313 15.5549 9.20775 15.5549H12.2438V9.5813H9.20775C7.53313 9.5813 6.17175 10.9206 6.17175 12.5681Z" fill="#8162AA"/>
</svg>
