<svg width="24" height="24" viewBox="0 0 24 24" fill="none" xmlns="http://www.w3.org/2000/svg">
<rect width="24" height="24" rx="6" fill="#1D1C57"/>
<path d="M5.05261 17.2289V6.49305C5.05261 6.41836 5.08037 6.38102 5.15438 6.38102C5.33017 6.38102 5.49671 6.38102 5.73726 6.37169C5.98707 6.36235 6.24612 6.36235 6.52369 6.35302C6.80125 6.34368 7.10656 6.34368 7.42113 6.33434C7.7357 6.32501 8.05027 6.31567 8.36484 6.31567C9.21603 6.31567 9.90993 6.41836 10.4928 6.64242C11.0109 6.81979 11.4828 7.10919 11.8806 7.50128C12.2137 7.83736 12.4727 8.23879 12.6393 8.68689C12.7966 9.12566 12.8798 9.57376 12.8798 10.0405C12.8798 10.9367 12.6763 11.6743 12.2599 12.2624C11.8436 12.8505 11.27 13.28 10.5946 13.532C9.89143 13.7934 9.11425 13.8868 8.27232 13.8868C8.02251 13.8868 7.85598 13.8868 7.75421 13.8774C7.64318 13.8588 7.49515 13.8588 7.30086 13.8588V17.2009C7.31011 17.2756 7.26385 17.3409 7.18983 17.3502H7.14357H5.18214C5.09887 17.3502 5.06186 17.3129 5.06186 17.2102L5.05261 17.2289ZM7.31011 8.39749V11.8983C7.45814 11.9076 7.58767 11.917 7.7172 11.917H8.26307C8.67016 11.917 9.06799 11.8516 9.44733 11.7303C9.7804 11.6369 10.0672 11.4409 10.2985 11.1795C10.5113 10.9181 10.6223 10.5633 10.6223 10.1059C10.6316 9.77915 10.5483 9.46174 10.3818 9.18167C10.206 8.91094 9.95619 8.70556 9.66012 8.5842C9.28079 8.4255 8.86445 8.36948 8.43886 8.37882C8.17055 8.37882 7.92999 8.37882 7.7357 8.38816C7.5229 8.37882 7.38412 8.38816 7.31011 8.39749Z" fill="#9696CA"/>
<path d="M14.3511 9.01376H16.1552C16.257 9.01376 16.3402 9.08845 16.368 9.1818C16.3958 9.26582 16.4235 9.34984 16.4328 9.4432C16.4513 9.54589 16.4698 9.65791 16.4883 9.76994C16.4975 9.88197 16.5068 10.0127 16.5068 10.1434C16.8121 9.77928 17.1914 9.48054 17.6078 9.24715C18.0796 8.97642 18.6347 8.83639 19.1806 8.83639C19.2546 8.82705 19.3194 8.87373 19.3287 8.94841V8.98576V11.0209C19.3287 11.1049 19.2731 11.1329 19.1621 11.1329C18.792 11.1236 18.4034 11.1516 18.0426 11.2356C17.7466 11.301 17.4505 11.3943 17.1729 11.5157C16.9786 11.609 16.7936 11.7304 16.6456 11.8984V17.2103C16.6456 17.313 16.6086 17.3597 16.5068 17.3597H14.4713C14.3881 17.369 14.3141 17.3224 14.3048 17.2383V17.201V11.4317C14.3048 11.1796 14.3048 10.9182 14.2955 10.6475C14.2863 10.3767 14.2863 10.106 14.277 9.83529C14.277 9.59257 14.2585 9.36851 14.24 9.12579C14.2308 9.06978 14.2585 9.0231 14.3141 9.01376C14.3233 9.00443 14.3418 9.00443 14.3511 9.01376Z" fill="#9696CA"/>
</svg>
