<svg width="24" height="24" viewBox="0 0 24 24" fill="none" xmlns="http://www.w3.org/2000/svg">
<rect width="24" height="24" rx="6" fill="#451022"/>
<path d="M9.20152 6.68561V17.4261C9.20152 17.5171 9.11135 17.6081 9.02119 17.6081H7.03755C6.94739 17.6081 6.94739 17.5171 6.94739 17.4261V6.68561C6.94739 6.59459 7.03755 6.59459 7.12772 6.59459H9.11135C9.11135 6.50357 9.20152 6.59459 9.20152 6.68561Z" fill="#EE3A68"/>
<path d="M15.1525 17.6991C14.4311 17.6991 13.6196 17.5171 12.8983 17.244C12.2672 16.971 11.7262 16.4248 11.3655 15.7877C11.0049 15.1505 10.8245 14.3313 10.8245 13.4211C10.8245 12.693 11.0049 11.8738 11.3655 11.2366C11.7262 10.5995 12.3573 9.96232 12.9885 9.59824C13.7098 9.23415 14.6115 9.05211 15.6033 9.05211C15.6934 9.05211 15.6934 9.05211 15.7836 9.05211C15.8738 9.05211 15.9639 9.05211 16.1443 9.05211V5.77535C16.1443 5.68433 16.1443 5.68433 16.2344 5.68433H18.3082C18.3984 5.68433 18.3984 5.68433 18.3984 5.77535V15.6967C18.3984 15.8787 18.3984 16.0607 18.3984 16.3338C18.3984 16.5158 18.3984 16.7889 18.3984 16.9709C18.3984 17.062 18.3984 17.062 18.3082 17.153C17.7672 17.4261 17.2263 17.5171 16.5951 17.6081C16.2344 17.6081 15.6934 17.6991 15.1525 17.6991ZM16.1443 15.6056V11.0546C16.0541 11.0546 15.9639 11.0546 15.8738 10.9636C15.7836 10.9636 15.6033 10.9636 15.5131 10.9636C15.1525 10.9636 14.7016 11.0546 14.341 11.2366C13.9803 11.4187 13.7098 11.6917 13.4393 11.9648C13.1688 12.3289 13.0787 12.784 13.0787 13.3301C13.0787 13.6942 13.1688 14.0583 13.259 14.4224C13.3492 14.6954 13.5295 14.9685 13.7098 15.1505C13.8901 15.3326 14.1606 15.5146 14.4311 15.6056C14.7016 15.6967 14.9721 15.6967 15.2426 15.6967C15.423 15.6967 15.5131 15.6967 15.6934 15.6967C15.8738 15.6967 16.0541 15.6967 16.1443 15.6056Z" fill="#EE3A68"/>
</svg>
