<svg width="24" height="24" viewBox="0 0 24 24" fill="none" xmlns="http://www.w3.org/2000/svg">
<rect width="24" height="24" rx="6" fill="#192132"/>
<path d="M13.8818 15.6346C14.8627 15.6346 15.6578 14.8524 15.6578 13.8874C15.6578 12.9224 14.8627 12.1401 13.8818 12.1401C12.9009 12.1401 12.1058 12.9224 12.1058 13.8874C12.1058 14.8524 12.9009 15.6346 13.8818 15.6346Z" fill="#DFF3FD"/>
<path d="M12.3133 8.75231C12.834 8.75231 13.2561 8.33703 13.2561 7.82476C13.2561 7.31249 12.834 6.89722 12.3133 6.89722C11.7926 6.89722 11.3705 7.31249 11.3705 7.82476C11.3705 8.33703 11.7926 8.75231 12.3133 8.75231Z" fill="url(#paint0_linear_1053_67)"/>
<path d="M12.0441 8.43641C12.387 8.43641 12.665 8.1629 12.665 7.8255C12.665 7.48811 12.387 7.2146 12.0441 7.2146C11.7011 7.2146 11.4231 7.48811 11.4231 7.8255C11.4231 8.1629 11.7011 8.43641 12.0441 8.43641Z" fill="#6959A6"/>
<path d="M11.3714 10.0503C12.1219 10.0503 12.7303 9.45173 12.7303 8.71338C12.7303 7.97502 12.1219 7.37646 11.3714 7.37646C10.6209 7.37646 10.0125 7.97502 10.0125 8.71338C10.0125 9.45173 10.6209 10.0503 11.3714 10.0503Z" fill="url(#paint1_linear_1053_67)"/>
<path d="M10.2306 11.0122C10.8307 11.0122 11.3173 10.5336 11.3173 9.94311C11.3173 9.35267 10.8307 8.87402 10.2306 8.87402C9.63039 8.87402 9.14386 9.35267 9.14386 9.94311C9.14386 10.5336 9.63039 11.0122 10.2306 11.0122Z" fill="#79CFDC"/>
<path d="M11.7406 9.5122C12.3407 9.5122 12.8273 9.03355 12.8273 8.44311C12.8273 7.85267 12.3407 7.37402 11.7406 7.37402C11.1404 7.37402 10.6539 7.85267 10.6539 8.44311C10.6539 9.03355 11.1404 9.5122 11.7406 9.5122Z" fill="url(#paint2_linear_1053_67)"/>
<path d="M22.2485 8.14064C20.8207 6.41052 13.055 6.67603 11.7229 6.92441C8.08382 7.5154 5.78544 8.90292 5.03672 10.5217C4.47083 11.755 4.15742 13.1768 4.78425 15.1125C5.03672 15.8405 5.42849 16.5171 5.94215 17.1081C9.3462 21.0566 11.0003 21.776 15.5971 19.472C16.2065 19.1637 16.9552 18.9239 17.791 18.1017C21.0645 15.4551 23.6328 9.74228 22.2485 8.14064Z" fill="#DFF3FD"/>
<path d="M6.50815 15.3522C9.75368 15.3522 12.3847 12.7638 12.3847 9.57088C12.3847 6.37794 9.75368 3.78955 6.50815 3.78955C3.26261 3.78955 0.631592 6.37794 0.631592 9.57088C0.631592 12.7638 3.26261 15.3522 6.50815 15.3522Z" fill="#192132"/>
<path d="M19.9937 12.9711C19.9501 12.7998 19.7673 12.697 19.5932 12.7398C18.7835 12.8854 17.9739 12.4914 17.5995 11.7805C17.1555 11.1039 17.2164 10.2131 17.7475 9.59647C17.8781 9.468 17.8781 9.26243 17.7475 9.13396C17.26 8.74854 16.7202 8.44021 16.1369 8.21752C15.9628 8.17469 15.78 8.26891 15.7277 8.44877C15.4491 9.21105 14.7004 9.70782 13.882 9.66499C13.0637 9.70782 12.315 9.21105 12.0364 8.44877C11.9841 8.27748 11.81 8.17469 11.6272 8.21752C11.0439 8.44021 10.5041 8.74854 10.0166 9.13396C9.88599 9.26243 9.88599 9.468 10.0166 9.59647C10.5477 10.2131 10.6086 11.0953 10.1646 11.7805C9.79023 12.5 8.98056 12.8854 8.1709 12.7398C7.99678 12.697 7.81396 12.7998 7.77043 12.9711C7.67467 13.5792 7.67467 14.1958 7.77043 14.804C7.81396 14.9753 7.99678 15.078 8.1709 15.0352C8.98056 14.8896 9.79023 15.2836 10.1646 15.9945C10.6086 16.6711 10.5477 17.5619 10.0166 18.1785C9.88599 18.307 9.88599 18.5126 10.0166 18.641C10.2604 18.8295 10.5128 19.0093 10.7827 19.1635C11.0526 19.3177 11.3312 19.4462 11.6272 19.5575C11.8013 19.6003 11.9841 19.5061 12.0364 19.3262C12.315 18.564 13.0637 18.0672 13.882 18.11C14.7004 18.0758 15.4491 18.564 15.7277 19.3262C15.78 19.4975 15.9541 19.6003 16.1369 19.5575C16.4242 19.4462 16.7115 19.3177 16.9814 19.1635C17.2513 19.0093 17.5037 18.838 17.7475 18.641C17.8781 18.5126 17.8781 18.307 17.7475 18.1785C17.2339 17.5533 17.1642 16.6797 17.5734 15.9859C17.9826 15.2921 18.7835 14.9153 19.5932 15.0352C19.7673 15.078 19.9501 14.9753 19.9937 14.804C20.0981 14.1958 20.0981 13.5792 19.9937 12.9711ZM13.882 15.6262C12.907 15.6262 12.106 14.8468 12.1147 13.8789C12.1147 12.9197 12.907 12.1317 13.8908 12.1317C14.8658 12.1317 15.6668 12.9111 15.6668 13.8789C15.6668 14.3414 15.484 14.7868 15.1444 15.1123C14.7962 15.4463 14.3522 15.6347 13.882 15.6262Z" fill="#192132"/>
<path d="M10.3822 10.7399L10.3561 10.7228L9.65964 10.3288C9.46811 10.2174 9.35493 10.0119 9.36364 9.79776V9.47229C9.36364 9.2496 9.47681 9.05261 9.66835 8.9327L10.3561 8.53014C10.6608 8.36741 10.7653 7.99056 10.5999 7.69935C10.5912 7.69078 10.5912 7.68222 10.5825 7.66509L10.2429 7.11693C10.1646 6.97133 10.034 6.86854 9.87729 6.81716C9.72059 6.76577 9.54647 6.7829 9.40717 6.85998L9.37234 6.87711L8.67586 7.27966C8.48433 7.39101 8.24927 7.39101 8.04903 7.27966L7.73562 7.0998C7.54409 6.98846 7.4222 6.7829 7.4309 6.56021V5.7551C7.4309 5.42964 7.16973 5.15556 6.83019 5.13843H6.17724C5.829 5.13843 5.55041 5.41251 5.55041 5.7551V6.62017C5.55041 6.84285 5.43723 7.03984 5.2457 7.15119L4.93228 7.33106C4.74075 7.4424 4.50569 7.4424 4.30545 7.33106L3.60896 6.86855C3.46967 6.7829 3.29555 6.74864 3.13884 6.79146C2.97342 6.82572 2.83413 6.9285 2.74707 7.06554L2.72966 7.0998L2.43365 7.66509C2.34659 7.80213 2.32048 7.97343 2.3553 8.1276C2.39013 8.29033 2.4946 8.42737 2.6339 8.51302L2.66872 8.53014L3.35649 8.9327C3.53932 9.04404 3.6525 9.24103 3.6525 9.45516V9.79776C3.6525 10.0119 3.53061 10.2089 3.34779 10.3117L2.66001 10.7142C2.3553 10.8769 2.25083 11.2538 2.41624 11.545C2.42495 11.5536 2.42495 11.5707 2.43365 11.5793L2.75578 12.1274C2.92119 12.4272 3.30426 12.53 3.60026 12.3672L3.63508 12.3501L4.32286 11.9476C4.51439 11.8362 4.74945 11.8362 4.94969 11.9476L5.26311 12.1274C5.45464 12.2388 5.57652 12.4443 5.56782 12.667V13.3693C5.56782 13.7119 5.84641 13.986 6.19465 13.986H6.83889C7.18713 13.986 7.46573 13.7119 7.46573 13.3693V12.6499C7.46573 12.4272 7.5789 12.2302 7.77044 12.1103L8.08385 11.9304C8.27538 11.8191 8.51045 11.8191 8.71069 11.9304L9.38975 12.3415C9.67705 12.5214 10.0688 12.4358 10.2517 12.1445C10.2604 12.136 10.2604 12.1274 10.2691 12.1103L10.5912 11.5536C10.6782 11.4165 10.7131 11.2538 10.6782 11.0911C10.626 10.9712 10.5215 10.8341 10.3822 10.7399ZM6.50807 10.8769C5.77676 10.8769 5.18476 10.2945 5.18476 9.57507C5.18476 8.85561 5.77676 8.2732 6.50807 8.2732C7.23937 8.2732 7.83138 8.85561 7.83138 9.57507C7.83138 10.2945 7.23937 10.8769 6.50807 10.8769Z" fill="#79CFDC"/>
<defs>
<linearGradient id="paint0_linear_1053_67" x1="11.3389" y1="7.82394" x2="11.9851" y2="7.82394" gradientUnits="userSpaceOnUse">
<stop offset="0.01" stop-color="#F26D5D"/>
<stop offset="1" stop-color="#EF384E"/>
</linearGradient>
<linearGradient id="paint1_linear_1053_67" x1="10.1663" y1="7.40472" x2="11.3908" y2="8.75156" gradientUnits="userSpaceOnUse">
<stop stop-color="#5FBDEB"/>
<stop offset="1" stop-color="#4A5AA8"/>
</linearGradient>
<linearGradient id="paint2_linear_1053_67" x1="10.4519" y1="7.30621" x2="11.4155" y2="8.16645" gradientUnits="userSpaceOnUse">
<stop stop-color="#FFCD3B"/>
<stop offset="1" stop-color="#F26D5D"/>
</linearGradient>
</defs>
</svg>
