<svg width="24" height="24" viewBox="0 0 24 24" fill="none" xmlns="http://www.w3.org/2000/svg">
<rect width="24" height="24" rx="6" fill="#071F35"/>
<path d="M5.05261 16.47V6.47945C5.05261 6.41576 5.07922 6.37027 5.15018 6.37027C5.30985 6.37027 5.46064 6.37027 5.68239 6.36117C5.90415 6.35207 6.14364 6.35207 6.40087 6.34297C6.65811 6.33387 6.93308 6.33387 7.2258 6.32477C7.51851 6.31567 7.80236 6.31567 8.0862 6.31567C8.86677 6.31567 9.50542 6.41576 10.0376 6.61594C10.5077 6.77972 10.9424 7.05268 11.3061 7.41664C11.6076 7.726 11.8471 8.10815 11.9979 8.5267C12.1399 8.93614 12.2197 9.35469 12.2197 9.79144C12.2197 10.6285 12.0334 11.32 11.652 11.8569C11.2706 12.4028 10.7472 12.8123 10.1263 13.0397C9.47881 13.2854 8.7692 13.3673 7.9975 13.3673C7.76688 13.3673 7.61608 13.3673 7.52738 13.3582C7.42094 13.34 7.28789 13.34 7.11049 13.34V16.4609C7.11936 16.5246 7.075 16.5883 7.00404 16.5974C6.99517 16.5974 6.9863 16.5974 6.96856 16.5974H5.16792C5.08809 16.5974 5.05261 16.5519 5.05261 16.47ZM7.11936 8.24463V11.5111C7.25241 11.5202 7.37659 11.5293 7.4919 11.5293H7.9975C8.37005 11.5293 8.73372 11.4747 9.08853 11.3564C9.39011 11.2655 9.65622 11.0835 9.8691 10.8378C10.0642 10.5921 10.1618 10.2646 10.1618 9.83693C10.1707 9.53667 10.0997 9.23641 9.94006 8.97254C9.77153 8.71777 9.5409 8.5267 9.26593 8.41751C8.91999 8.27193 8.53858 8.21733 8.14829 8.22643C7.89993 8.22643 7.68704 8.22643 7.50077 8.23553C7.3145 8.22643 7.18145 8.23553 7.11936 8.24463Z" fill="#56A1D8"/>
<path d="M18.1183 10.9104C17.8344 10.7557 17.5328 10.6466 17.2135 10.5829C16.8676 10.501 16.5128 10.4555 16.1491 10.4555C15.9628 10.4464 15.7588 10.4737 15.5814 10.5192C15.4572 10.5465 15.3508 10.6193 15.2887 10.7102C15.2443 10.7921 15.2088 10.8831 15.2088 10.9741C15.2088 11.0651 15.2443 11.147 15.3064 11.2289C15.3951 11.3381 15.5016 11.42 15.6257 11.4927C15.8475 11.611 16.0693 11.7202 16.2999 11.8112C16.8143 11.9841 17.3022 12.2298 17.7546 12.5209C18.065 12.7211 18.3223 12.9941 18.4997 13.3307C18.6505 13.6401 18.7303 13.9858 18.7214 14.3316C18.7303 14.7865 18.5972 15.2415 18.3489 15.6236C18.0828 16.0149 17.7102 16.3151 17.2845 16.488C16.8232 16.6882 16.2555 16.7974 15.5725 16.7974C15.1379 16.7974 14.7121 16.761 14.2864 16.67C13.9582 16.6154 13.6211 16.5062 13.3195 16.3606C13.2574 16.3242 13.2042 16.2514 13.2131 16.1787V14.4863C13.2131 14.459 13.2219 14.4226 13.2485 14.3953C13.2752 14.3771 13.3018 14.3862 13.3373 14.4044C13.7098 14.6319 14.0912 14.7865 14.5081 14.8775C14.8718 14.9776 15.2443 15.0231 15.6257 15.0231C15.9894 15.0231 16.2378 14.9776 16.4152 14.8866C16.566 14.8229 16.6724 14.65 16.6724 14.4772C16.6724 14.3407 16.5926 14.2133 16.4418 14.0859C16.291 13.9585 15.9806 13.813 15.5104 13.631C15.0314 13.4581 14.5791 13.2215 14.1622 12.9304C13.8695 12.7211 13.6211 12.439 13.4437 12.1024C13.2929 11.793 13.2131 11.4473 13.2219 11.1106C13.2219 10.692 13.3372 10.2917 13.5413 9.93684C13.7808 9.54559 14.1267 9.23623 14.5347 9.04515C14.9782 8.80858 15.537 8.7085 16.2112 8.7085C16.6015 8.7085 17.0006 8.73579 17.382 8.79948C17.6659 8.83588 17.9409 8.91777 18.1981 9.02696C18.2336 9.03605 18.2779 9.07245 18.2957 9.11794C18.3045 9.15434 18.3134 9.19983 18.3134 9.23623V10.8194C18.3134 10.8558 18.2957 10.9013 18.269 10.9195C18.207 10.9286 18.1537 10.9286 18.1183 10.9104Z" fill="#56A1D8"/>
</svg>
