<svg width="24" height="24" viewBox="0 0 24 24" fill="none" xmlns="http://www.w3.org/2000/svg">
<rect width="24" height="24" rx="6" fill="#1D1C57"/>
<path d="M10.0266 13.6764H6.19062L5.44213 16.175C5.44213 16.2711 5.34857 16.3672 5.25501 16.3672H3.29021C3.19665 16.3672 3.10309 16.2711 3.19665 16.175L6.47131 6.37277C6.47131 6.27667 6.56487 6.18057 6.56487 6.08447C6.65843 5.79617 6.65843 5.60397 6.65843 5.41177C6.65843 5.31567 6.65843 5.31567 6.75199 5.31567H9.37171C9.46527 5.31567 9.46527 5.31567 9.46527 5.41177L13.2077 16.175C13.2077 16.2711 13.2077 16.3672 13.1142 16.3672H10.9623C10.8687 16.3672 10.7751 16.3672 10.7751 16.2711L10.0266 13.6764ZM6.84555 11.5622H9.46527C9.37171 11.37 9.27815 11.0817 9.18459 10.7934C9.09103 10.5051 8.99747 10.2168 8.9039 9.92847C8.81034 9.64017 8.71678 9.25577 8.62322 8.96747C8.52966 8.67917 8.4361 8.29477 8.34254 8.00647C8.24897 7.71817 8.15541 7.42987 8.06185 7.14157C7.96829 7.62207 7.87473 8.10257 7.68761 8.48697C7.50048 8.96747 7.40692 9.54408 7.2198 10.0246C7.12624 10.6012 6.93911 11.0817 6.84555 11.5622Z" fill="#9696CA"/>
<path d="M19.2892 12.7155H16.0145C16.0145 13.0038 16.2016 13.3882 16.2952 13.6765C16.4823 13.9648 16.763 14.157 17.0437 14.3492C17.4179 14.5414 17.8857 14.6375 18.3535 14.6375C18.7278 14.6375 19.102 14.6375 19.3827 14.5414C19.6634 14.5414 20.0377 14.4453 20.3183 14.2531C20.4119 14.2531 20.4119 14.2531 20.4119 14.3492V15.9829V16.079C20.4119 16.079 20.4119 16.1751 20.3183 16.1751C19.9441 16.3673 19.6634 16.4634 19.2892 16.4634C18.8214 16.5595 18.3535 16.5595 17.7922 16.5595C17.0437 16.5595 16.3888 16.4634 15.8274 16.1751C15.3596 15.9829 14.8918 15.5985 14.5175 15.2141C14.1433 14.8297 13.9562 14.3492 13.769 13.8687C13.5819 13.3882 13.5819 12.8116 13.5819 12.3311C13.5819 11.7545 13.6755 11.1779 13.8626 10.6974C14.0497 10.2169 14.2368 9.64029 14.6111 9.25589C14.9853 8.87149 15.3596 8.48709 15.8274 8.29489C16.2952 8.00659 16.8566 8.00659 17.5115 8.00659C18.0729 8.00659 18.6342 8.10269 19.102 8.29489C19.4763 8.48709 19.8505 8.77539 20.1312 9.15979C20.4119 9.54419 20.599 9.92859 20.7861 10.313C20.8797 10.6974 20.9733 11.1779 20.9733 11.5623C20.9733 11.8506 20.9733 12.0428 20.9733 12.235C20.9733 12.4272 20.9733 12.6194 20.9733 12.7155C20.9733 12.8116 20.8797 12.8116 20.7861 12.8116C20.6926 12.8116 20.599 12.8116 20.4119 12.8116C20.2248 12.8116 20.0377 12.8116 19.8505 12.8116C19.6634 12.8116 19.5698 12.7155 19.2892 12.7155ZM16.0145 11.1779H18.1664C18.4471 11.1779 18.6342 11.1779 18.7278 11.1779C18.8214 11.1779 18.9149 11.1779 19.0085 11.0818V10.9857C19.0085 10.8896 19.0085 10.6974 18.9149 10.6013C18.7278 10.0247 18.1664 9.64029 17.6051 9.64029C17.0437 9.64029 16.4823 9.92859 16.2016 10.4091C16.2016 10.6013 16.1081 10.8896 16.0145 11.1779Z" fill="#9696CA"/>
</svg>
