<svg width="24" height="24" viewBox="0 0 24 24" fill="none" xmlns="http://www.w3.org/2000/svg">
<rect width="24" height="24" rx="6" fill="#27100C"/>
<path fill-rule="evenodd" clip-rule="evenodd" d="M5.96925 13.7607L5.16414 16.8064C5.14605 16.8888 5.10987 16.8979 5.01036 16.8979H3.52679C3.42729 16.8979 3.40919 16.8705 3.42729 16.7424L6.30396 6.58983C6.35823 6.4069 6.38537 6.29714 6.40346 5.78494C6.40346 5.71177 6.4306 5.68433 6.48488 5.68433H8.60167C8.67404 5.68433 8.70118 5.70262 8.71927 5.78494L11.9397 16.7699C11.9578 16.8522 11.9397 16.8979 11.8583 16.8979H10.1938C10.1124 16.8979 10.0671 16.8888 10.04 16.8247L9.19872 13.7515H5.96925V13.7607ZM8.7826 12.0777C8.50217 10.9436 7.83275 8.48315 7.57946 7.28496H7.57041C7.36235 8.474 6.81959 10.4862 6.40346 12.0777H8.7826ZM12.8895 10.285C12.8895 10.1844 12.8895 9.82768 12.8353 9.23316C12.8353 9.15999 12.8534 9.15084 12.9257 9.11426C13.7761 8.79413 14.8797 8.43742 16.0376 8.43742C17.4578 8.43742 19.0138 8.99535 19.0138 11.4558V16.7607C19.0138 16.8613 18.9866 16.8888 18.8962 16.8888H17.3855C17.286 16.8888 17.2588 16.8339 17.2588 16.7607V11.6021C17.2588 10.6234 16.9151 10.0838 15.92 10.0838C15.4858 10.0838 15.0697 10.1661 14.7802 10.2667V16.7882C14.7802 16.8613 14.753 16.9071 14.6807 16.9071H13.0343C12.9529 16.9071 12.9167 16.8796 12.9167 16.7882V10.2942H12.8895V10.285Z" fill="#F04F27"/>
</svg>
