<svg width="24" height="24" viewBox="0 0 24 24" fill="none" xmlns="http://www.w3.org/2000/svg">
<rect width="24" height="24" rx="6" fill="#301111"/>
<path d="M11.3011 14.4784H7.46018L6.67577 16.926C6.65773 17.017 6.57659 17.0806 6.47741 17.0715H4.54793C4.43072 17.0715 4.40367 17.0079 4.43072 16.8805L7.7487 7.23568C7.78476 7.13559 7.81181 7.01731 7.85689 6.88992C7.90197 6.67155 7.92001 6.44408 7.92001 6.21661C7.90197 6.16201 7.94705 6.11652 8.00115 6.10742H8.0282H10.67C10.7511 6.10742 10.7962 6.13472 10.8052 6.18931L14.565 16.9078C14.592 17.0261 14.565 17.0715 14.4658 17.0715H12.3109C12.2388 17.0806 12.1667 17.0261 12.1486 16.9533L11.3011 14.4784ZM8.06427 12.3674H10.688C10.6249 12.1491 10.5437 11.8852 10.4536 11.6213C10.3634 11.3393 10.2642 11.039 10.1741 10.7296C10.0749 10.4112 9.97571 10.0927 9.87653 9.77426C9.77735 9.4558 9.67817 9.14644 9.59703 8.84618C9.51588 8.55501 9.44375 8.28205 9.37162 8.03638H9.35359C9.26343 8.48222 9.14621 8.92807 9.00196 9.38301C8.84868 9.88345 8.6954 10.4021 8.52409 10.9207C8.37082 11.4394 8.21754 11.9307 8.06427 12.3674Z" fill="#F89A1C"/>
<path d="M16.864 7.92729C16.5214 7.93639 16.1968 7.79991 15.9444 7.56334C15.7099 7.29947 15.5837 6.96281 15.5927 6.60796C15.5837 6.2531 15.719 5.92554 15.9624 5.67987C16.2058 5.4342 16.5394 5.31592 16.8821 5.31592C17.2878 5.31592 17.5943 5.4433 17.8197 5.67987C18.0452 5.92554 18.1714 6.2622 18.1624 6.60796C18.1714 6.96281 18.0452 7.30857 17.8017 7.56334C17.5673 7.809 17.2157 7.94549 16.864 7.92729ZM15.7099 16.9534V8.94636C15.7099 8.84627 15.755 8.80078 15.8452 8.80078H17.8829C17.973 8.80078 18.0181 8.85537 18.0181 8.94636V16.9625C18.0181 17.0807 17.973 17.1262 17.8829 17.1262H15.8632C15.764 17.1262 15.7099 17.0625 15.7099 16.9534Z" fill="#F89A1C"/>
</svg>
