<svg width="24" height="24" viewBox="0 0 24 24" fill="none" xmlns="http://www.w3.org/2000/svg">
<rect width="24" height="24" rx="6" fill="#3A99D5"/>
<path fill-rule="evenodd" clip-rule="evenodd" d="M17.6213 20.4749L18.8917 6.74927H5.1084L6.37875 20.4749L12.0318 22L17.6213 20.4749Z" fill="white"/>
<path fill-rule="evenodd" clip-rule="evenodd" d="M16.5416 19.5851L17.6214 7.82935H12.0319V20.7925L16.5416 19.5851Z" fill="white"/>
<path fill-rule="evenodd" clip-rule="evenodd" d="M7.90332 5.54179H10.0629V4.71571H8.85608V3.88963H10.0629V3H7.90332V5.54179ZM10.9522 3.88963C11.2062 4.1438 11.3968 4.33444 11.7779 4.71571C11.5238 4.71571 10.9522 4.71571 10.9522 4.71571V5.54179H13.1117V4.71571L12.286 3.88963H13.1117V3H10.9522C10.9522 3 10.9522 3.44481 10.9522 3.88963ZM16.0971 3H13.9375C13.9375 3 13.9375 3.44481 13.9375 3.88963C14.1915 4.1438 14.3821 4.33444 14.7632 4.71571C14.5091 4.71571 13.9375 4.71571 13.9375 4.71571V5.54179H16.0971V4.71571L15.2713 3.88963H16.0971V3Z" fill="white"/>
<path d="M7.64899 9.48169L7.90306 11.1339H12.2858L8.09361 12.8496L8.22064 14.5017H14.1913L14.0642 16.6622L12.1587 17.2341L10.1897 16.7258L10.0626 15.3913H8.34768L8.53823 17.9967L12.0317 19.0134L15.5887 18.0602L16.0333 12.8496H11.9682L16.1603 11.1339L16.2873 9.48169H7.64899Z" fill="#3A99D5"/>
</svg>
