<?xml version="1.0" encoding="UTF-8"?>
<svg id="Layer_1" xmlns="http://www.w3.org/2000/svg" version="1.1" viewBox="0 0 910 910">
  <!-- Generator: Adobe Illustrator 29.2.1, SVG Export Plug-In . SVG Version: 2.1.0 Build 116)  -->
  <defs>
    <style>
      .st0 {
        fill: none;
        stroke: #231f20;
        stroke-miterlimit: 10;
        stroke-width: 8px;
      }

      .st1 {
        fill: #fff;
      }
    </style>
  </defs>
  <g>
    <path class="st0" d="M1753.2,1328c0-1.1,0-2.3,0-3.4,0-81.8-66.3-148.2-148.2-148.2s-64.5,11.2-89.3,29.9c-24.3,18.4-42.7,44-52,73.6-4.4,14.1-6.8,29.1-6.8,44.6s0,2.3,0,3.4c.8,35.7,14.3,68.3,36.1,93.5-.1,0,0,0,0,0l4.6,5.1.2.2,5,5,.4.4,57,56.9,71.2,71.1,66.9,66.8,48,47.9c-9.3,29.7-27.7,55.3-51.9,73.7l-121.9-121.6-85.9-85.7-45.1-45h0s0,0,0-.1l-8.1-8c-.1-.2-.3-.3-.4-.5-3.2-3.3-6.2-6.7-9.1-10.2-34.1-40.4-55-92.6-55.8-149.5,0-1.1,0-2.3,0-3.4,0-8.8.5-17.4,1.4-25.9,3.3-30.9,12.6-60,26.7-86.2,14.3-26.6,33.4-50.1,56.3-69.4,41.2-34.8,94.5-55.7,152.6-55.7,130.9,0,237.1,106.1,237.1,237.1s0,2.3,0,3.4"/>
    <path class="st0" d="M1457,1627c0,1.1,0,2.3,0,3.4,0,81.8,66.3,148.2,148.1,148.2s64.6-11.2,89.5-30c24.2-18.4,42.6-44,51.9-73.7,4.4-14,6.8-29,6.8-44.5s0-2.3,0-3.4c-.8-35.7-13.7-68.5-35.6-93.7.2,0-.2,0,0,0l-67.7-67.5-71.1-71-66.9-66.8-48.2-48c9.4-29.7,27.8-55.3,52-73.6l122,121.7,85.8,85.6,63.3,63.1c-.2.3.2-.2,0,0,34.2,40.4,54.5,93.3,55.3,150.2,0,1.1,0,2.3,0,3.4,0,8.7-.5,17.3-1.4,25.7-3.3,30.9-12.6,60-26.7,86.2-14.2,26.6-33.4,50.1-56.3,69.4-41.2,34.8-94.6,55.8-152.8,55.8-130.9,0-237-106.1-237-237.1s0-2.3,0-3.4"/>
  </g>
  <path class="st1" d="M455,66c-214.9,0-389,174.2-389,389s174.2,389,389,389,389-174.2,389-389S669.9,66,455,66ZM183.8,344.3l34.9,20.2,86.7,50.1,216.1,124.8-66.2,38.2-216.1-124.8-55.5-32v-76.4ZM608.1,665.8l-89.7,51.8h0l-66.2,38.2-66.2-38.2-86.5-49.9-115.6-66.8v-76.4l181.8,105,86.5,49.9,89.7-51.8,66.2-38.2,66.2,38.2-66.2,38.2ZM726.2,556.4l-30.6-17.6-86.5-50h0l-216.1-124.8,66.2-38.2,216.1,124.8,50.9,29.4v76.4ZM726.2,389.8l-188.8-109-86.7-50.1-78.1,45.1-66.2,38.2-66.2-38.2,66.2-38.2,78.2-45.1,66.2-38.2,66.2,38.2,86.7,50.1,122.6,70.8v76.5Z"/>
</svg>