<?xml version="1.0" encoding="UTF-8"?>
<svg id="Layer_1" xmlns="http://www.w3.org/2000/svg" version="1.1" viewBox="0 0 910 910">
  <!-- Generator: Adobe Illustrator 29.2.1, SVG Export Plug-In . SVG Version: 2.1.0 Build 116)  -->
  <defs>
    <style>
      .st0 {
        fill: #fff;
      }
    </style>
  </defs>
  <path class="st0" d="M569.8,590.8c0-.9,0-1.9,0-2.8h0c-.6-28.3-10.4-55.4-27.6-76.6l-1.3.5-1.8-4.1-59.2-59.1-122.6-122.4-35.8-35.6c-2.2,9.3-3.2,18.9-3.2,28.5s0,1.9,0,2.8h0c.6,27.9,10.5,54.8,28,76.3l3.2,3.8,3.7,4,4.6,4.6,50.6,50.6,63.3,63.1,95,94.8c2.1-9.2,3.2-18.7,3.2-28.4Z"/>
  <path class="st0" d="M455,72.4c-211.3,0-382.6,171.3-382.6,382.6s171.3,382.6,382.6,382.6,382.6-171.3,382.6-382.6S666.3,72.4,455,72.4ZM588.8,174.4c-38.7-38.7-90.1-60-144.8-60s-95,17.1-131.8,48.1c-19.9,16.8-36.3,36.9-48.7,59.9-12.5,23.2-20.2,48.2-23.1,74.4-.8,7.3-1.2,14.9-1.2,22.4s0,1.9,0,2.8v.2c.7,47.2,17.8,93.1,48.2,129.1,2.8,3.3,5.4,6.2,7.9,8.8l.4.4s0,0,0,0l8.7,8.6,38.5,38.4,76.3,76.1,104.6,104.4c1.2-1,2.4-2,3.5-3,.3-.3.6-.6.9-.9.8-.8,1.7-1.5,2.5-2.3.4-.4.8-.8,1.2-1.2.7-.7,1.4-1.4,2.1-2.1.4-.4.8-.9,1.3-1.3.6-.7,1.3-1.4,1.9-2.1.4-.5.8-.9,1.2-1.4.6-.7,1.2-1.4,1.8-2.1.4-.5.8-.9,1.2-1.4.6-.7,1.2-1.5,1.8-2.2.4-.5.7-.9,1.1-1.4.6-.8,1.2-1.6,1.8-2.4.3-.4.6-.9.9-1.3.7-1,1.4-2,2.1-3,.2-.3.3-.5.5-.8.8-1.3,1.6-2.6,2.4-3.9.2-.3.4-.6.6-1,.6-1,1.2-2,1.7-3,.3-.5.5-1,.8-1.5.5-.9.9-1.7,1.4-2.6.3-.5.5-1.1.8-1.6.4-.8.8-1.7,1.2-2.5.3-.6.5-1.2.8-1.7.4-.8.7-1.7,1.1-2.5.2-.6.5-1.2.7-1.8.3-.9.7-1.7,1-2.6.2-.6.4-1.2.6-1.8,0-.2.2-.5.3-.8l-99.5-99.3-63.3-63.1-50.5-50.4-.5-.5-5-5-1.5-1.6-7.3-8.6c-17.9-23.1-28.1-51.6-28.8-80.9,0-1.1,0-2.2,0-3.2,0-12.9,1.8-25.6,5.3-37.9h0c0,0,1.1-3.4,1.1-3.4,7-22.3,19.5-42.2,36.3-58.2,2.5-2.3,5-4.6,7.7-6.8,1.4-1.1,2.8-2.2,4.2-3.3l4-3h0c23.1-16.2,50.2-24.7,78.7-24.7,75.8,0,137.4,61.6,137.4,137.4s0,2.2,0,3.3l-11.5-.5c0-.9,0-1.9,0-2.8,0-69.4-56.5-125.8-125.8-125.8s-49.6,7.4-70.4,21.6l235.4,234.8,4.5,3.4-.7,1c30,37.1,46.8,84.3,47.6,133.5,0,1.1,0,2.2,0,3.2,0,7.8-.4,15.7-1.2,23.4-3,27.8-11.2,54.2-24.4,78.7-12.9,24.2-30.2,45.5-51.3,63.3-38.9,32.8-88.4,50.9-139.4,50.9s-112.1-22.5-153-63.4c-40.9-40.9-63.4-95.2-63.4-153s0-2.2,0-3.3l11.5.5c0,.9,0,1.9,0,2.8,0,54.7,21.3,106.1,60,144.8,38.7,38.7,90.1,60,144.8,60s95.1-17.1,132-48.2c20.1-16.9,36.4-37,48.6-59.9,12.5-23.1,20.2-48.2,23.1-74.4.8-7.4,1.2-14.8,1.2-22.2s0-1.9,0-2.8v-.2c-.7-47.8-17.4-93.5-47.1-129-.4-.3-.7-.7-1-1.1l-236.4-235.9c-1.2,1-2.4,2-3.5,3-.4.3-.7.7-1.1,1-.8.7-1.6,1.4-2.4,2.2-.4.4-.8.8-1.3,1.2-.7.7-1.4,1.3-2,2-.4.4-.9.9-1.3,1.4-.6.7-1.3,1.3-1.9,2-.4.5-.9.9-1.3,1.4-.6.7-1.2,1.4-1.8,2.1-.4.5-.8,1-1.2,1.4-.6.7-1.2,1.5-1.7,2.2-.4.5-.7.9-1.1,1.4-.6.8-1.2,1.6-1.8,2.4-.3.4-.6.9-.9,1.3-.7,1-1.4,2-2.1,3-.2.3-.3.5-.5.8-.8,1.3-1.6,2.6-2.4,3.9-.2.3-.4.6-.6,1-.6,1-1.2,2-1.7,3-.3.5-.5,1-.8,1.5-.5.9-.9,1.7-1.4,2.6-.3.5-.5,1.1-.8,1.6-.4.8-.8,1.7-1.2,2.5-.3.6-.5,1.2-.8,1.7-.4.8-.7,1.7-1.1,2.5-.2.6-.5,1.2-.7,1.8-.3.9-.7,1.7-1,2.6-.2.6-.4,1.2-.6,1.8,0,.2-.2.5-.2.7l40.2,40.1,122.6,122.4,57.8,57.6,2.1-.5,1.2,3.9,4.6,4.6-.7.4c17.6,22.9,27.6,51.4,28.3,81.1,0,1.1,0,2.2,0,3.2,0,12.9-1.8,25.6-5.3,37.8h0c0,0-1.1,3.4-1.1,3.4,0,0,0,0,0,0-6.8,21.6-18.7,40.9-34.7,56.6-1.7,1.7-3.4,3.3-5.2,4.9-2.7,2.4-5.4,4.6-8.3,6.8l-4,3h0c-23.1,16.2-50.3,24.8-78.9,24.8-75.7,0-137.3-61.6-137.3-137.4s0-2.2,0-3.3l11.5.5c0,.9,0,1.9,0,2.8,0,69.4,56.4,125.8,125.8,125.8s49.7-7.5,70.6-21.6l-219.5-219c-.3-.2-.5-.5-.7-.7l-7.2-7.2c0,0-.2-.2-.3-.3-2.6-2.7-5.3-5.7-8.2-9.1-32.2-38.1-50.3-86.5-51-136.4,0-1.1,0-2.2,0-3.2,0-7.9.4-15.9,1.3-23.6,3-27.7,11.2-54.1,24.4-78.6,13-24.3,30.3-45.6,51.4-63.3,38.9-32.8,88.3-50.8,139.3-50.8s112.1,22.5,153,63.4c40.9,40.9,63.4,95.2,63.4,153s0,2.2,0,3.3l-11.5-.5c0-.9,0-1.9,0-2.8,0-54.7-21.3-106.1-60-144.8Z"/>
</svg>